<svg xmlns="http://www.w3.org/2000/svg" viewBox="0 0 128 128" width="128" height="128">
  <!-- Background Circle -->
  <circle cx="64" cy="64" r="60" fill="#4A90E2" stroke="#357ABD" stroke-width="2"/>

  <!-- Globe/World Icon -->
  <circle cx="64" cy="64" r="40" fill="none" stroke="white" stroke-width="3"/>

  <!-- Vertical lines (longitude) -->
  <path d="M64 24 Q50 64 64 104" fill="none" stroke="white" stroke-width="2"/>
  <path d="M64 24 Q78 64 64 104" fill="none" stroke="white" stroke-width="2"/>

  <!-- Horizontal lines (latitude) -->
  <path d="M24 64 Q64 50 104 64" fill="none" stroke="white" stroke-width="2"/>
  <path d="M24 64 Q64 78 104 64" fill="none" stroke="white" stroke-width="2"/>

  <!-- Translation arrows -->
  <g transform="translate(64, 64)">
    <!-- Left arrow -->
    <path d="M-35 -10 L-25 -10 L-30 -15 M-25 -10 L-30 -5" fill="none" stroke="white" stroke-width="2" stroke-linecap="round"/>

    <!-- Right arrow -->
    <path d="M25 10 L35 10 L30 5 M35 10 L30 15" fill="none" stroke="white" stroke-width="2" stroke-linecap="round"/>

    <!-- Text elements -->
    <text x="-20" y="-5" fill="white" font-family="Arial, sans-serif" font-size="12" font-weight="bold">A</text>
    <text x="15" y="15" fill="white" font-family="Arial, sans-serif" font-size="12" font-weight="bold">Ä</text>
  </g>

  <!-- Small AI indicator -->
  <circle cx="90" cy="38" r="8" fill="#28a745"/>
  <text x="90" y="42" fill="white" font-family="Arial, sans-serif" font-size="8" font-weight="bold" text-anchor="middle">AI</text>
</svg>
